<mxfile host="Electron" modified="2023-04-20T14:55:19.146Z" agent="Mozilla/5.0 (Windows NT 10.0; Win64; x64) AppleWebKit/537.36 (KHTML, like Gecko) draw.io/21.1.2 Chrome/106.0.5249.199 Electron/21.4.3 Safari/537.36" etag="OkmM_WSrrMEN6AKoqorJ" version="21.1.2" type="device">
  <diagram name="config_flow" id="bHvOXWCWipz5dRtCauyA">
    <mxGraphModel dx="1313" dy="786" grid="1" gridSize="10" guides="1" tooltips="1" connect="1" arrows="1" fold="1" page="1" pageScale="1" pageWidth="1654" pageHeight="1169" math="0" shadow="0">
      <root>
        <mxCell id="0" />
        <mxCell id="1" parent="0" />
        <mxCell id="ReegpU0O4rxn1y2I9Xjh-7" style="edgeStyle=orthogonalEdgeStyle;rounded=0;orthogonalLoop=1;jettySize=auto;html=1;exitX=0.5;exitY=1;exitDx=0;exitDy=0;entryX=0.5;entryY=0;entryDx=0;entryDy=0;" edge="1" parent="1" source="ReegpU0O4rxn1y2I9Xjh-2" target="ReegpU0O4rxn1y2I9Xjh-6">
          <mxGeometry relative="1" as="geometry" />
        </mxCell>
        <mxCell id="ReegpU0O4rxn1y2I9Xjh-2" value="async_step_mqtt" style="rounded=1;whiteSpace=wrap;html=1;" vertex="1" parent="1">
          <mxGeometry x="200" y="200" width="120" height="80" as="geometry" />
        </mxCell>
        <mxCell id="ReegpU0O4rxn1y2I9Xjh-3" value="Mqtt discovery" style="text;html=1;strokeColor=none;fillColor=none;align=center;verticalAlign=middle;whiteSpace=wrap;rounded=0;" vertex="1" parent="1">
          <mxGeometry x="200" y="160" width="120" height="40" as="geometry" />
        </mxCell>
        <mxCell id="ReegpU0O4rxn1y2I9Xjh-10" style="edgeStyle=orthogonalEdgeStyle;rounded=0;orthogonalLoop=1;jettySize=auto;html=1;exitX=0.5;exitY=1;exitDx=0;exitDy=0;entryX=0.5;entryY=0;entryDx=0;entryDy=0;" edge="1" parent="1" source="ReegpU0O4rxn1y2I9Xjh-4" target="ReegpU0O4rxn1y2I9Xjh-8">
          <mxGeometry relative="1" as="geometry" />
        </mxCell>
        <mxCell id="ReegpU0O4rxn1y2I9Xjh-11" style="edgeStyle=orthogonalEdgeStyle;rounded=0;orthogonalLoop=1;jettySize=auto;html=1;exitX=0.5;exitY=1;exitDx=0;exitDy=0;entryX=0.5;entryY=0;entryDx=0;entryDy=0;" edge="1" parent="1" source="ReegpU0O4rxn1y2I9Xjh-4" target="ReegpU0O4rxn1y2I9Xjh-9">
          <mxGeometry relative="1" as="geometry" />
        </mxCell>
        <mxCell id="ReegpU0O4rxn1y2I9Xjh-4" value="async_step_user" style="rounded=1;whiteSpace=wrap;html=1;" vertex="1" parent="1">
          <mxGeometry x="640" y="200" width="120" height="80" as="geometry" />
        </mxCell>
        <mxCell id="ReegpU0O4rxn1y2I9Xjh-5" value="User setup" style="text;html=1;strokeColor=none;fillColor=none;align=center;verticalAlign=middle;whiteSpace=wrap;rounded=0;" vertex="1" parent="1">
          <mxGeometry x="640" y="160" width="120" height="40" as="geometry" />
        </mxCell>
        <mxCell id="ReegpU0O4rxn1y2I9Xjh-6" value="async_step_confirm" style="rounded=1;whiteSpace=wrap;html=1;" vertex="1" parent="1">
          <mxGeometry x="200" y="360" width="120" height="80" as="geometry" />
        </mxCell>
        <mxCell id="ReegpU0O4rxn1y2I9Xjh-8" value="async_step_confirm" style="rounded=1;whiteSpace=wrap;html=1;" vertex="1" parent="1">
          <mxGeometry x="640" y="520" width="120" height="80" as="geometry" />
        </mxCell>
        <mxCell id="ReegpU0O4rxn1y2I9Xjh-16" style="edgeStyle=orthogonalEdgeStyle;rounded=0;orthogonalLoop=1;jettySize=auto;html=1;exitX=0.5;exitY=1;exitDx=0;exitDy=0;entryX=0.5;entryY=0;entryDx=0;entryDy=0;" edge="1" parent="1" source="ReegpU0O4rxn1y2I9Xjh-9" target="ReegpU0O4rxn1y2I9Xjh-8">
          <mxGeometry relative="1" as="geometry" />
        </mxCell>
        <mxCell id="ReegpU0O4rxn1y2I9Xjh-9" value="async_step_config" style="rounded=1;whiteSpace=wrap;html=1;" vertex="1" parent="1">
          <mxGeometry x="840" y="360" width="120" height="80" as="geometry" />
        </mxCell>
        <mxCell id="ReegpU0O4rxn1y2I9Xjh-13" value="User (show_advanced_options)" style="text;html=1;strokeColor=none;fillColor=none;align=center;verticalAlign=middle;whiteSpace=wrap;rounded=0;" vertex="1" parent="1">
          <mxGeometry x="720" y="280" width="160" height="40" as="geometry" />
        </mxCell>
        <mxCell id="ReegpU0O4rxn1y2I9Xjh-14" value="Yes" style="text;html=1;strokeColor=none;fillColor=none;align=center;verticalAlign=middle;whiteSpace=wrap;rounded=0;" vertex="1" parent="1">
          <mxGeometry x="900" y="320" width="60" height="40" as="geometry" />
        </mxCell>
        <mxCell id="ReegpU0O4rxn1y2I9Xjh-15" value="No" style="text;html=1;strokeColor=none;fillColor=none;align=center;verticalAlign=middle;whiteSpace=wrap;rounded=0;" vertex="1" parent="1">
          <mxGeometry x="640" y="320" width="60" height="40" as="geometry" />
        </mxCell>
        <mxCell id="ReegpU0O4rxn1y2I9Xjh-17" value="User input valid" style="text;html=1;strokeColor=none;fillColor=none;align=center;verticalAlign=middle;whiteSpace=wrap;rounded=0;" vertex="1" parent="1">
          <mxGeometry x="720" y="440" width="160" height="40" as="geometry" />
        </mxCell>
      </root>
    </mxGraphModel>
  </diagram>
</mxfile>
